<svg xmlns="http://www.w3.org/2000/svg" viewBox="0 0 840 470" font-family="-apple-system,BlinkMacSystemFont,Segoe UI,Helvetica,Arial,sans-serif" role="img" aria-label="Without Harbor every agent carries every tool into every channel; with Harbor each channel has its own curated, gated toolset — the same in any community.">
  <!-- self-contained light card so it reads on both light and dark GitHub themes -->
  <rect x="1" y="1" width="838" height="468" rx="16" fill="#ffffff" stroke="#e2e8f0" stroke-width="2"/>

  <text x="32" y="46" font-size="25" font-weight="700" fill="#0f172a">Harbor + Buzz</text>
  <text x="33" y="72" font-size="14" fill="#475569">The channel becomes the unit of capability — scope it once, every agent there inherits it.</text>

  <line x1="420" y1="96" x2="420" y2="438" stroke="#e2e8f0" stroke-width="2"/>

  <!-- ============ WITHOUT HARBOR ============ -->
  <rect x="32" y="102" width="150" height="24" rx="12" fill="#fef2f2" stroke="#fecaca"/>
  <text x="107" y="119" font-size="12" font-weight="700" fill="#dc2626" text-anchor="middle">WITHOUT HARBOR</text>

  <!-- channels -->
  <g font-size="13" font-weight="600" fill="#0f172a">
    <rect x="32" y="150" width="130" height="34" rx="8" fill="#f1f5f9" stroke="#cbd5e1"/><text x="48" y="172">#legal</text>
    <rect x="32" y="196" width="130" height="34" rx="8" fill="#f1f5f9" stroke="#cbd5e1"/><text x="48" y="218">#bookkeeping</text>
    <rect x="32" y="242" width="130" height="34" rx="8" fill="#f1f5f9" stroke="#cbd5e1"/><text x="48" y="264">#ops</text>
  </g>

  <!-- converging connectors to one big pile -->
  <g stroke="#f87171" stroke-width="2" fill="none">
    <path d="M162 167 C210 167 210 205 250 205"/>
    <path d="M162 213 L250 213"/>
    <path d="M162 259 C210 259 210 221 250 221"/>
  </g>

  <!-- the ungoverned pile -->
  <rect x="250" y="150" width="140" height="126" rx="10" fill="#fff7ed" stroke="#fdba74" stroke-width="2"/>
  <text x="320" y="176" font-size="13" font-weight="700" fill="#9a3412" text-anchor="middle">EVERY tool</text>
  <text x="320" y="194" font-size="13" font-weight="700" fill="#9a3412" text-anchor="middle">EVERY channel</text>
  <g font-size="10" fill="#c2410c" text-anchor="middle">
    <text x="320" y="220">legal · payroll · deploy</text>
    <text x="320" y="236">secrets · CRM · email</text>
    <text x="320" y="252">…the whole harness</text>
  </g>

  <text x="32" y="316" font-size="12.5" fill="#475569">Every agent carries the same full toolset into</text>
  <text x="32" y="334" font-size="12.5" fill="#475569">every channel. No per-channel limit. Nothing</text>
  <text x="32" y="352" font-size="12.5" fill="#475569">audited. A #legal bot can reach payroll + deploy.</text>

  <!-- ============ WITH HARBOR ============ -->
  <rect x="452" y="102" width="130" height="24" rx="12" fill="#eef2ff" stroke="#c7d2fe"/>
  <text x="517" y="119" font-size="12" font-weight="700" fill="#4f46e5" text-anchor="middle">WITH HARBOR</text>

  <!-- three scoped rows: channel -> its own curated, gated toolset -->
  <g>
    <!-- row 1 -->
    <rect x="452" y="150" width="120" height="34" rx="8" fill="#f1f5f9" stroke="#cbd5e1"/>
    <text x="468" y="172" font-size="12.5" font-weight="600" fill="#0f172a">#legal</text>
    <path d="M576 167 L604 167" stroke="#94a3b8" stroke-width="2"/>
    <rect x="608" y="150" width="182" height="34" rx="8" fill="#ecfdf5" stroke="#a7f3d0"/>
    <text x="622" y="164" font-size="12" font-weight="700" fill="#059669">110 skills</text>
    <text x="622" y="179" font-size="10" fill="#64748b">gated · audited · in this channel only</text>
  </g>
  <g>
    <!-- row 2 -->
    <rect x="452" y="202" width="120" height="34" rx="8" fill="#f1f5f9" stroke="#cbd5e1"/>
    <text x="468" y="224" font-size="12" font-weight="600" fill="#0f172a">#bookkeeping</text>
    <path d="M576 219 L604 219" stroke="#94a3b8" stroke-width="2"/>
    <rect x="608" y="202" width="182" height="34" rx="8" fill="#ecfdf5" stroke="#a7f3d0"/>
    <text x="622" y="216" font-size="12" font-weight="700" fill="#059669">11 skills</text>
    <text x="622" y="231" font-size="10" fill="#64748b">gated · audited · in this channel only</text>
  </g>
  <g>
    <!-- row 3 -->
    <rect x="452" y="254" width="120" height="34" rx="8" fill="#f1f5f9" stroke="#cbd5e1"/>
    <text x="468" y="276" font-size="12.5" font-weight="600" fill="#0f172a">#ops</text>
    <path d="M576 271 L604 271" stroke="#94a3b8" stroke-width="2"/>
    <rect x="608" y="254" width="182" height="34" rx="8" fill="#ecfdf5" stroke="#a7f3d0"/>
    <text x="622" y="268" font-size="12" font-weight="700" fill="#059669">45 skills</text>
    <text x="622" y="283" font-size="10" fill="#64748b">gated · audited · in this channel only</text>
  </g>

  <text x="452" y="320" font-size="12.5" fill="#475569">Each channel has its own curated toolset. Whichever</text>
  <text x="452" y="338" font-size="12.5" fill="#475569">agent works there gets exactly those skills — enforced,</text>
  <text x="452" y="356" font-size="12.5" fill="#475569">audited, and you add or remove them per channel.</text>

  <!-- footer strip -->
  <rect x="32" y="392" width="776" height="46" rx="10" fill="#f8fafc" stroke="#e2e8f0"/>
  <text x="48" y="412" font-size="12.5" fill="#334155">A per-channel policy curates each channel's skills &amp; tools; <tspan font-weight="700" fill="#0f172a">buzz-acp</tspan> enforces exactly that set for every session in the channel.</text>
  <text x="48" y="429" font-size="12.5" fill="#334155">Works in any community — self-hosted or Block-hosted — because scoping happens where the agent runs, not on the relay.</text>
</svg>
